# xmcd
#
# Track frame offsets: 
#        150
#        16398
#        27960
#        41278
#        69287
#        85673
#        103285
#        124986
#        144676
#        159152
#        179837
#
# Disc length: 2672 seconds
#
# Revision: 0
# Processed by: cddbd v1.5PL3 Copyright (c) Steve Scherf et al.
# Submitted via: ExactAudioCopy v0.95a5
#
DISCID=8f0a6e0b
DTITLE=Shawn Brush - Shawn Brush and Friends V.2
DYEAR=2003
DGENRE=Country
TTITLE0=Hank
TTITLE1=SAY 2 U
TTITLE2=Michigan
TTITLE3=Beauty and The Beast
TTITLE4=Jesus Loves You
TTITLE5=Mizz Josephine
TTITLE6=One More Day
TTITLE7=Don't Give Me The Blues
TTITLE8=Woodstove
TTITLE9=Falling In Love Again
TTITLE10=Day By Day
EXTD=
EXTT0=
EXTT1=
EXTT2=
EXTT3=
EXTT4=
EXTT5=
EXTT6=
EXTT7=
EXTT8=
EXTT9=
EXTT10=
PLAYORDER=
